<svg width="26" height="59" viewBox="0 0 26 59" fill="none" xmlns="http://www.w3.org/2000/svg">
<path fill-rule="evenodd" clip-rule="evenodd" d="M5.20001 7.54431C5.20001 3.37765 8.69213 0 13 0C17.3079 0 20.8 3.37765 20.8 7.54431C20.7958 11.7092 17.3061 15.0845 13 15.0886C8.69213 15.0886 5.20001 11.711 5.20001 7.54431ZM7.80001 7.54431C7.80001 10.322 10.1281 12.5738 13 12.5738C15.8719 12.5738 18.2 10.322 18.2 7.54431C18.2 4.76659 15.8719 2.51477 13 2.51477C10.1281 2.51477 7.80001 4.76659 7.80001 7.54431ZM0 26.4049C0.0056875 21.5463 4.07664 17.6088 9.1 17.6033H16.9C21.9235 17.6088 25.9943 21.5463 26 26.4049V40.1394C26 40.8338 25.4179 41.3968 24.7 41.3968H20.8V57.7427C20.8 58.4371 20.2179 59.0001 19.5 59.0001H6.5C5.78207 59.0001 5.2 58.4371 5.2 57.7427V41.3968H1.3C0.582075 41.3968 0 40.8338 0 40.1394V26.4049ZM20.8 38.882H23.4V26.4049C23.3958 22.9346 20.488 20.1221 16.9 20.118H9.1C5.512 20.1221 2.60422 22.9346 2.6 26.4049V38.882H5.2V27.6623H7.8V56.4853H11.7V38.882H14.3V56.4853H18.2V27.6623H20.8V38.882Z" fill="#219653"/>
</svg>
