<svg width="48" height="52" viewBox="0 0 48 52" fill="none" xmlns="http://www.w3.org/2000/svg">
<path fill-rule="evenodd" clip-rule="evenodd" d="M36.6398 9.97852L41.2708 5.3479L47.7339 11.8114L43.1033 16.442C45.5646 20.1487 46.8865 24.496 46.8865 29.0469C46.8865 41.7033 36.6354 52 24.0349 52C11.4348 52 1.18335 41.7033 1.18335 29.0469C1.18335 24.496 2.50565 20.1487 4.96655 16.442L0.335938 11.8114L6.79944 5.3479L11.4301 9.97852C13.8719 8.35709 16.5919 7.23077 19.4646 6.65036V3.04688H16.4177V0H31.6521V3.04688H28.6052V6.65036C31.4783 7.23077 34.1983 8.35709 36.6398 9.97852ZM25.5583 3.04688H22.5115V6.24649C23.0165 6.21356 23.5243 6.19531 24.0349 6.19531C24.5455 6.19531 25.0533 6.21356 25.5583 6.24649V3.04688ZM6.79944 9.65677L4.64481 11.811L6.83554 14.0017C7.5441 13.194 8.22806 12.5156 8.99017 11.8471L6.79944 9.65677ZM4.23022 29.0469C4.23022 40.0232 13.1146 48.9531 24.0349 48.9531C34.9553 48.9531 43.8396 40.0232 43.8396 29.0469C43.8396 18.1265 34.9553 9.24219 24.0349 9.24219C13.1146 9.24219 4.23022 18.1265 4.23022 29.0469ZM41.2708 9.65677L39.08 11.8475C39.866 12.5366 40.5468 13.2174 41.2347 14.0017L43.4254 11.8114L41.2708 9.65677ZM7.2771 29.0469C7.2771 19.8067 14.7947 12.2891 24.0349 12.2891C33.2751 12.2891 40.7927 19.8067 40.7927 29.0469C40.7927 38.2871 33.2751 45.8047 24.0349 45.8047C14.7947 45.8047 7.2771 38.2871 7.2771 29.0469ZM25.5583 39.7109V42.6725C31.904 41.9679 36.956 36.9148 37.6609 30.5691H34.699V27.5234H37.6609C37.3678 24.8828 36.3216 22.4663 34.7426 20.4934L28.1585 27.0775C28.4449 27.6742 28.6052 28.3423 28.6052 29.0469C28.6052 31.5669 26.5549 33.6172 24.0349 33.6172C21.5149 33.6172 19.4646 31.5669 19.4646 29.0469C19.4646 26.5269 21.5149 24.4766 24.0349 24.4766C24.7399 24.4766 25.4076 24.6372 26.0043 24.9233L32.5884 18.3392C30.6154 16.7602 28.199 15.7144 25.5583 15.4212V18.3828H22.5115V15.4212C16.1662 16.1258 11.1139 21.1778 10.4093 27.5234H13.3708V30.5703H10.4093C11.1139 36.916 16.1662 41.9679 22.5115 42.6725V39.7109H25.5583ZM24.0349 30.5703C24.8752 30.5703 25.5583 29.8867 25.5583 29.0469C25.5583 28.207 24.8752 27.5234 24.0349 27.5234C23.195 27.5234 22.5115 28.207 22.5115 29.0469C22.5115 29.8867 23.195 30.5703 24.0349 30.5703Z" fill="#219653"/>
</svg>
