<svg width="50" height="50" viewBox="0 0 50 50" fill="none" xmlns="http://www.w3.org/2000/svg">
<path fill-rule="evenodd" clip-rule="evenodd" d="M50 20.3358L42.6117 19.2093C42.3222 18.3277 41.9662 17.4686 41.5478 16.6412L45.9755 10.6205L39.3795 4.02451L33.3588 8.45222C32.531 8.03375 31.6723 7.67784 30.7907 7.38831L29.6642 0H20.3358L19.2093 7.38831C18.3277 7.67784 17.4686 8.03375 16.6412 8.45222L10.6205 4.02451L4.02451 10.6205L8.45222 16.6412C8.03375 17.469 7.67784 18.3277 7.38831 19.2093L0 20.3358V29.6642L7.38831 30.7907C7.67784 31.6723 8.03375 32.5314 8.45222 33.3588L4.02451 39.3795L10.6205 45.9755L16.6412 41.5478C17.469 41.9662 18.3277 42.3222 19.2093 42.6117L20.3358 50H29.6642L30.7907 42.6117C31.6723 42.3222 32.531 41.9662 33.3588 41.5478L39.3795 45.9755L45.9755 39.3795L41.5478 33.3588C41.9662 32.531 42.3222 31.6723 42.6117 30.7907L50 29.6642V20.3358ZM42.1246 39.0877L39.0877 42.1246L33.5793 38.0733L32.7515 38.5483C31.6051 39.2056 30.3761 39.7148 29.0985 40.0616L28.1776 40.3114L27.1473 47.0703H22.8527L21.8224 40.3114L20.9015 40.0616C19.6243 39.7148 18.3952 39.2056 17.2485 38.5483L16.4207 38.0733L10.9123 42.1242L7.87544 39.0877L11.9267 33.5793L11.4517 32.7511C10.7944 31.6048 10.2852 30.3761 9.93843 29.0985L9.68857 28.1776L2.92969 27.1473V22.8527L9.68857 21.8224L9.93843 20.9015C10.2852 19.6239 10.7944 18.3949 11.4517 17.2485L11.9267 16.4207L7.87544 10.9123L10.9123 7.87544L16.4207 11.9267L17.2485 11.4517C18.3949 10.7944 19.6239 10.2852 20.9015 9.93843L21.8224 9.68857L22.8527 2.92969H27.1473L28.1776 9.68857L29.0985 9.93843C30.3761 10.2852 31.6051 10.7944 32.7515 11.4517L33.5793 11.9267L39.0881 7.87544L42.1246 10.9123L38.0733 16.4207L38.5483 17.2485C39.2056 18.3949 39.7148 19.6239 40.0616 20.9015L40.3114 21.8224L47.0703 22.8527V27.1473L40.3114 28.1776L40.0616 29.0985C39.7148 30.3761 39.2056 31.6051 38.5483 32.7515L38.0733 33.5793L42.1246 39.0877ZM25 12.6953C18.2152 12.6953 12.6953 18.2152 12.6953 25C12.6953 31.7848 18.2152 37.3047 25 37.3047C31.7848 37.3047 37.3047 31.7848 37.3047 25C37.3047 18.2152 31.7848 12.6953 25 12.6953ZM25 34.375C19.8307 34.375 15.625 30.1693 15.625 25C15.625 19.8307 19.8307 15.625 25 15.625C30.1693 15.625 34.375 19.8307 34.375 25C34.375 30.1693 30.1693 34.375 25 34.375ZM18.9453 25C18.9453 21.6614 21.6614 18.9453 25 18.9453C28.3386 18.9453 31.0547 21.6614 31.0547 25C31.0547 28.3386 28.3386 31.0547 25 31.0547C21.6614 31.0547 18.9453 28.3386 18.9453 25ZM21.875 25C21.875 26.7231 23.2769 28.125 25 28.125C26.7231 28.125 28.125 26.7231 28.125 25C28.125 23.2769 26.7231 21.875 25 21.875C23.2769 21.875 21.875 23.2769 21.875 25Z" fill="#219653"/>
</svg>
