<svg width="44" height="50" viewBox="0 0 44 50" fill="none" xmlns="http://www.w3.org/2000/svg">
<path fill-rule="evenodd" clip-rule="evenodd" d="M26.3945 1.46484C26.3945 0.655859 27.0504 0 27.8594 0C28.6684 0 29.3242 0.655859 29.3242 1.46484V4.49219C29.3242 5.30117 28.6684 5.95703 27.8594 5.95703C27.0504 5.95703 26.3945 5.30117 26.3945 4.49219V1.46484ZM42.8506 30.957C43.5479 30.1787 43.9727 29.1514 43.9727 28.0273C43.9727 25.6045 42.001 23.6328 39.5781 23.6328H31.0488C31.8936 21.0693 32.2539 17.668 32.2539 16.21V14.7461C32.2539 11.5156 29.625 8.88672 26.3945 8.88672H24.9297C24.2578 8.88672 23.6719 9.34375 23.5088 9.99609L22.7109 13.1885C21.5928 17.6592 18.043 22.5918 14.3691 23.4883C13.7256 21.8594 12.1367 20.7031 10.2812 20.7031H1.49219C0.683594 20.7031 0.0273438 21.3594 0.0273438 22.168V48.5352C0.0273438 49.3438 0.683594 50 1.49219 50H10.2812C12.0283 50 13.54 48.9756 14.248 47.4951L19.2812 49.1729C20.9268 49.7217 22.6416 50 24.377 50H36.6484C39.0713 50 41.043 48.0283 41.043 45.6055C41.043 45.0342 40.9336 44.4873 40.7344 43.9863C42.5977 43.4775 43.9727 41.7695 43.9727 39.7461C43.9727 38.6221 43.5479 37.5947 42.8506 36.8164C43.5479 36.0381 43.9727 35.0107 43.9727 33.8867C43.9727 32.7627 43.5479 31.7354 42.8506 30.957ZM11.7461 45.6055C11.7461 46.4131 11.0889 47.0703 10.2812 47.0703H2.95703V23.6328H10.2812C11.0889 23.6328 11.7461 24.29 11.7461 25.0977V45.6055ZM36.6484 32.4219H39.5781C40.3857 32.4219 41.043 33.0791 41.043 33.8867C41.043 34.6943 40.3857 35.3516 39.5781 35.3516H36.6484C35.8398 35.3516 35.1836 36.0078 35.1836 36.8164C35.1836 37.625 35.8398 38.2812 36.6484 38.2812H39.5781C40.3857 38.2812 41.043 38.9385 41.043 39.7461C41.043 40.5537 40.3857 41.2109 39.5781 41.2109H36.6484C35.8398 41.2109 35.1836 41.8672 35.1836 42.6758C35.1836 43.4844 35.8398 44.1406 36.6484 44.1406C37.4561 44.1406 38.1133 44.7979 38.1133 45.6055C38.1133 46.4131 37.4561 47.0703 36.6484 47.0703H24.377C22.957 47.0703 21.5537 46.8428 20.207 46.3936L14.6758 44.5498V26.4238C16.9736 25.9873 19.2227 24.5322 21.2529 22.1504C23.2354 19.8242 24.8428 16.7402 25.5527 13.8994L26.0732 11.8164H26.3945C28.0098 11.8164 29.3242 13.1309 29.3242 14.7461V16.21C29.3242 18.1768 28.709 21.9492 27.9219 23.6328H24.9297C24.1211 23.6328 23.4648 24.2891 23.4648 25.0977C23.4648 25.9062 24.1211 26.5625 24.9297 26.5625H39.5781C40.3857 26.5625 41.043 27.2197 41.043 28.0273C41.043 28.835 40.3857 29.4922 39.5781 29.4922H36.6484C35.8398 29.4922 35.1836 30.1484 35.1836 30.957C35.1836 31.7656 35.8398 32.4219 36.6484 32.4219ZM7.35156 44.1406C8.16057 44.1406 8.81641 43.4848 8.81641 42.6758C8.81641 41.8668 8.16057 41.2109 7.35156 41.2109C6.54255 41.2109 5.88672 41.8668 5.88672 42.6758C5.88672 43.4848 6.54255 44.1406 7.35156 44.1406ZM21.6445 6.45986L19.5729 4.38828C19.001 3.81621 18.0734 3.81621 17.5014 4.38828C16.9293 4.96035 16.9293 5.88779 17.5014 6.45986L19.5729 8.53145C20.1449 9.10342 21.0726 9.10352 21.6445 8.53145C22.2166 7.95938 22.2166 7.03193 21.6445 6.45986ZM36.1458 4.38828C36.7179 3.81621 37.6454 3.81621 38.2174 4.38828C38.7895 4.96035 38.7895 5.88779 38.2174 6.45986L36.1458 8.53145C35.5737 9.10352 34.6462 9.10342 34.0742 8.53135C33.5022 7.95928 33.5022 7.03184 34.0742 6.45977L36.1458 4.38828Z" fill="#219653"/>
</svg>
