<svg width="34" height="26" viewBox="0 0 34 26" fill="none" xmlns="http://www.w3.org/2000/svg">
<path d="M23.375 0.25H0V22.9167H5.20632C5.79118 24.5651 7.36176 25.75 9.20833 25.75C11.0549 25.75 12.6255 24.5651 13.2103 22.9167H20.7897C21.3745 24.5651 22.9451 25.75 24.7917 25.75C26.6382 25.75 28.2088 24.5651 28.7937 22.9167H34V8.35744L29.1357 0.25H23.375ZM9.20833 22.9167C8.42702 22.9167 7.79167 22.2813 7.79167 21.5C7.79167 20.7187 8.42702 20.0833 9.20833 20.0833C9.98964 20.0833 10.625 20.7187 10.625 21.5C10.625 22.2813 9.98964 22.9167 9.20833 22.9167ZM24.7917 22.9167C24.0104 22.9167 23.375 22.2813 23.375 21.5C23.375 20.7187 24.0104 20.0833 24.7917 20.0833C25.573 20.0833 26.2083 20.7187 26.2083 21.5C26.2083 22.2813 25.573 22.9167 24.7917 22.9167ZM31.1667 20.0833H28.7937C28.2088 18.4349 26.6382 17.25 24.7917 17.25C22.9451 17.25 21.3745 18.4349 20.7897 20.0833H13.2103C12.6255 18.4349 11.0549 17.25 9.20833 17.25C7.36176 17.25 5.79118 18.4349 5.20632 20.0833H2.83333V14.4167H9.20833V11.5833H2.83333V8.75H12.75V5.91667H2.83333V3.08333H20.5417V11.5833H17V14.4167H31.1667V20.0833ZM31.1667 11.5833H23.375V3.08333H27.5309L31.1667 9.14256V11.5833Z" fill="#A053E7"/>
</svg>
