<svg width="34" height="34" viewBox="0 0 34 34" fill="none" xmlns="http://www.w3.org/2000/svg">
<path fill-rule="evenodd" clip-rule="evenodd" d="M26.8685 3.05569L28.287 8.25252H31.8134V14.9907H34.0001V26.8279H31.8134V33.682H0V8.25252H4.02598L20.0409 0.318359L22.0487 4.37117L26.8685 3.05569ZM25.815 8.25255L25.1958 5.98422L23.1275 6.54871L20.7831 7.18856L16.8848 8.25255H21.3103H23.9716H25.815ZM2.38477 31.2973H29.4286V31.2972H29.4287V26.8278H17.2647V21.3906V20.1546V18.9186V18.6114V15.95V14.9906H19.2012H24.5731H27.654H28.89H29.4286V12.4354V10.6373H28.9378H27.7018H26.4659H25.1532H22.4918H8.14718H4.58434H3.61857H2.38477V10.9741V13.4215V13.7804V18.309V31.2973ZM30.6209 24.4431H31.6153V17.3755H30.7769H30.6211H29.4287H27.4475H22.9189H19.7596H19.6495V17.43V18.2678V19.5038V20.7398V24.4431H29.4286H30.6209ZM19.7044 5.01099L18.9627 3.51391L11.3242 7.29819L19.7044 5.01099ZM21.5382 20.2244V19.7998H23.0936H23.8733V22.1348H21.5382V20.2244Z" fill="#A053E7"/>
</svg>
