<svg width="10" height="14" viewBox="0 0 10 14" fill="none" xmlns="http://www.w3.org/2000/svg">
<path d="M6.34856 6.99704L1.11119 12.2346C0.966981 12.3785 0.887648 12.5709 0.887648 12.776C0.887648 12.9812 0.966981 13.1734 1.11119 13.3175L1.57012 13.7762C1.7141 13.9206 1.90657 14 2.11168 14C2.31679 14 2.50903 13.9206 2.65313 13.7762L8.88905 7.54042C9.03371 7.39587 9.11293 7.20272 9.11236 6.99738C9.11293 6.79114 9.03383 6.59821 8.88904 6.45354L2.65893 0.223773C2.51483 0.0794474 2.32259 5.93581e-07 2.11737 6.11522e-07C1.91226 6.29453e-07 1.72002 0.0794474 1.57581 0.223773L1.117 0.682472C0.818443 0.981025 0.818443 1.46704 1.117 1.76548L6.34856 6.99704Z" fill="#28A0ED"/>
</svg>
