<svg width="10" height="14" viewBox="0 0 10 14" fill="none" xmlns="http://www.w3.org/2000/svg">
<path d="M3.65145 7.00296L8.88882 1.76537C9.03303 1.6215 9.11236 1.42914 9.11236 1.22403C9.11236 1.01881 9.03303 0.826569 8.88882 0.682472L8.42989 0.223772C8.28591 0.0794472 8.09344 0 7.88833 0C7.68323 0 7.49098 0.0794472 7.34689 0.223772L1.11097 6.45958C0.9663 6.60413 0.887081 6.79728 0.88765 7.00262C0.887081 7.20886 0.966186 7.40179 1.11097 7.54646L7.34108 13.7762C7.48518 13.9206 7.67742 14 7.88264 14C8.08775 14 8.27999 13.9206 8.4242 13.7762L8.88302 13.3175C9.18157 13.019 9.18157 12.533 8.88302 12.2345L3.65145 7.00296Z" fill="#28A0ED"/>
</svg>
